<svg xmlns="http://www.w3.org/2000/svg" viewBox="0 0 32 32" width="32" height="32">
  <defs>
    <linearGradient id="g" x1="0%" y1="0%" x2="100%" y2="100%">
      <stop offset="0%" stop-color="#3b82f6"/>
      <stop offset="100%" stop-color="#1d4ed8"/>
    </linearGradient>
  </defs>
  <rect width="32" height="32" rx="8" fill="url(#g)"/>
  <path d="M9 7h14a1 1 0 0 1 1 1v16a1 1 0 0 1-1 1H9a1 1 0 0 1-1-1V8a1 1 0 0 1 1-1zm2 3v3h3v-3h-3zm5 0v3h3v-3h-3zm-5 5v3h3v-3h-3zm5 0v3h3v-3h-3zm-2 5v4h4v-4h-4z" fill="#ffffff"/>
</svg>
